<svg height="16px" width="16px" viewBox="0 0 24 24" fill="none" xmlns="http://www.w3.org/2000/svg">
  <path d="M2 2L22 22" stroke="currentColor" fill="currentColor" stroke-width="2" stroke-linecap="round" stroke-linejoin="round"/>
  <path d="M6.713 6.723C3.665 8.795 2 12 2 12s3.636 7 10 7c2.05 0 3.817-.727 5.271-1.712M11 5.058C11.325 5.02 11.659 5 12 5c6.364 0 10 7 10 7s-.692 1.332-2 2.834" stroke="#000" stroke-width="2" stroke-linecap="round" stroke-linejoin="round"/>
  <path d="M14 14.236c-.531.475-1.232.764-2 .764-1.657 0-3-1.343-3-3 0-.824.332-1.57.869-2.112" stroke="#000" stroke-width="2" stroke-linecap="round" stroke-linejoin="round"/>
</svg>
